# xmcd
#
# Track frame offsets:
#	150
#	22485
#	43217
#	66708
#	86311
#	106895
#	124567
#	145003
#	164434
#	181354
#	199148
#	218019
#	236240
#	256842
#
# Disc length: 3690 seconds
#
# Revision: 1
# Processed by: cddbd v1.5.2PL0 Copyright (c) Steve Scherf et al.
# Submitted via: EZCDAudioConverter 8.0.2.1
#
DISCID=cf0e680e
DTITLE=Đàm Vĩnh Hưng - Tình Buồn Của H
DYEAR=2014
DGENRE=World Pop
TTITLE0=Đàm Vĩnh Hưng - Tình Buồn Của H
TTITLE1=Đàm Vĩnh Hưng - Tình Buồn Của H (Acoustic)
TTITLE2=Đàm Vĩnh Hưng - Hỡi người tình
TTITLE3=Đàm Vĩnh Hưng - Chỉ còn mình anh
TTITLE4=Đàm Vĩnh Hưng - Niềm đau chôn dấu
TTITLE5=Đàm Vĩnh Hưng - Tình yêu của tôi
TTITLE6=Đàm Vĩnh Hưng - Mẹ
TTITLE7=Đàm Vĩnh Hưng, Dương Triệu Vũ - Con yêu
TTITLE8=Đàm Vĩnh Hưng - Trốn tránh kỷ niệm (Remix)
TTITLE9=Đàm Vĩnh Hưng - Tình yêu online (Remix)
TTITLE10=Đàm Vĩnh Hưng - Tình Buồn Của H (Remix)
TTITLE11=Đàm Vĩnh Hưng - Chỉ còn mình anh (Remix)
TTITLE12=Đàm Vĩnh Hưng - Lạc mất em (Remix)
TTITLE13=Đàm Vĩnh Hưng - Tình nhạt phai (Remix)
EXTD=
EXTT0=
EXTT1=
EXTT2=
EXTT3=
EXTT4=
EXTT5=
EXTT6=
EXTT7=
EXTT8=
EXTT9=
EXTT10=
EXTT11=
EXTT12=
EXTT13=
PLAYORDER=
